<svg width="165" height="40" viewBox="0 0 165 40" fill="none" xmlns="http://www.w3.org/2000/svg">
<g clip-path="url(#clip0)">
<path d="M7.49492 4.31247C4.85824 6.42618 2.79642 9.18556 1.50391 12.3304L4.65564 27.1659C4.82435 27.006 5.00614 26.861 5.19904 26.7323L7.49492 4.31247Z" fill="#FFCC00"/>
<path d="M7.36178 26.073C7.601 26.0732 7.83971 26.0953 8.07499 26.139L22.8311 0.243655C21.8082 0.0815066 20.7744 5.06187e-05 19.7391 2.16228e-05C16.1479 -0.00534078 12.624 0.986788 9.55033 2.86857L7.16479 26.0771C7.23 26.0743 7.29657 26.073 7.36178 26.073Z" fill="#FFCC00"/>
<path d="M7.36174 34.0523C6.44821 34.0539 5.56292 33.7315 4.85938 33.1411C7.09592 35.742 9.95829 37.7128 13.1685 38.8619C16.3787 40.011 19.8277 40.2994 23.1804 39.6992C26.5331 39.099 29.6757 37.6305 32.3028 35.4363C34.93 33.2421 36.9526 30.3969 38.174 27.1769L10.542 33.371C9.81249 33.5348 9.08976 33.7275 8.3684 33.9215C8.03975 34.0086 7.70143 34.0525 7.36174 34.0523Z" fill="#FFCC00"/>
<path d="M3.51991 30.9388L3.51176 30.8961C3.51176 30.8823 3.50497 30.8686 3.50225 30.8548L0.377689 16.1266C0.128568 17.4024 0.00208791 18.6996 2.44649e-05 20C-0.0066307 24.2748 1.34468 28.4383 3.8541 31.8748C3.7049 31.5781 3.59308 31.2637 3.52127 30.9388H3.51991Z" fill="#FFCC00"/>
<path d="M37.5138 11.287L11.2457 29.4068C11.3488 30.0328 11.3022 30.6747 11.1099 31.2788L38.8383 25.0599C40.0184 20.4572 39.5481 15.5795 37.5111 11.2953L37.5138 11.287Z" fill="#FFCC00"/>
<path d="M10.4727 27.6173L36.6022 9.59945C33.9478 5.18664 29.7133 1.9836 24.7832 0.659332L9.80835 26.9374C10.0563 27.1358 10.2794 27.3642 10.4727 27.6173Z" fill="#FFCC00"/>
<path d="M54.0345 10.5423C54.1424 10.4463 54.2809 10.393 54.4244 10.3923H57.1931C57.4525 10.3923 57.5829 10.5148 57.5829 10.7612C57.5842 10.8202 57.5797 10.8793 57.5694 10.9374L54.3714 26.2078H62.5048C62.801 26.2078 62.9477 26.3262 62.9477 26.5616C62.9489 26.6119 62.9448 26.6622 62.9354 26.7116L62.392 29.2994C62.3695 29.4525 62.2902 29.5913 62.1704 29.6874C62.0505 29.7835 61.8991 29.8298 61.7468 29.8169H50.3516C50.0731 29.8169 49.9346 29.7041 49.9346 29.4769C49.9394 29.4172 49.9485 29.3578 49.9617 29.2994L53.8063 10.9374C53.8368 10.7836 53.9171 10.6446 54.0345 10.5423Z" fill="white"/>
<path d="M67.4648 10.4061H80.0758C80.372 10.4061 80.5201 10.5203 80.5201 10.7474C80.5151 10.8067 80.506 10.8656 80.4929 10.9236L79.9685 13.4577C79.9475 13.609 79.8706 13.7466 79.7534 13.8427C79.6361 13.9388 79.4872 13.9861 79.3368 13.9752H69.993L69.1589 17.9394H76.2842C76.6076 17.9394 76.7679 18.0661 76.7679 18.3207C76.769 18.371 76.7649 18.4213 76.7556 18.4708L76.2312 20.9484C76.1592 21.2939 75.9297 21.4659 75.552 21.4659H68.4198L67.4118 26.2602H76.9974C77.2922 26.2602 77.4403 26.3827 77.4403 26.629C77.4419 26.679 77.4373 26.7289 77.4267 26.7777L76.9023 29.298C76.8801 29.4513 76.8009 29.5902 76.681 29.6864C76.5611 29.7826 76.4094 29.8288 76.2571 29.8156H63.4056C63.1271 29.8156 62.9885 29.7027 62.9885 29.4756C62.9926 29.4157 63.0017 29.3563 63.0157 29.298L66.8603 10.9222C66.9404 10.5795 67.1428 10.4061 67.4648 10.4061Z" fill="white"/>
<path d="M88.6399 10.3923H90.7904C91.0947 10.3923 91.2781 10.5616 91.342 10.8975L94.7559 29.2581C94.7707 29.3116 94.7798 29.3665 94.7831 29.4219C94.7863 29.4784 94.7756 29.5347 94.7518 29.5859C94.7281 29.6371 94.6922 29.6815 94.6472 29.7151C94.5424 29.7867 94.4176 29.8224 94.2913 29.8169H91.5974C91.2922 29.8169 91.111 29.6582 91.054 29.3407L90.4617 26.2079H82.5633L80.6614 29.3269C80.5874 29.4794 80.4766 29.6105 80.3395 29.7082C80.2133 29.7835 80.0687 29.8212 79.9224 29.8169H76.9704C76.7367 29.8169 76.6199 29.7357 76.6199 29.5719C76.6247 29.4587 76.6626 29.3496 76.7286 29.2581L87.886 10.8975C88.0829 10.5616 88.3343 10.3923 88.6399 10.3923ZM89.9563 22.83L88.7866 15.4164L84.4856 22.83H89.9563Z" fill="white"/>
<path d="M99.8108 10.4061H106.235C107.613 10.3953 108.97 10.7452 110.175 11.4219C111.378 12.0903 112.378 13.0781 113.069 14.2793C113.759 15.4805 114.114 16.8496 114.094 18.2395C114.09 18.8712 114.023 19.5008 113.892 20.1184C113.509 21.8683 112.723 23.5019 111.6 24.8864C110.449 26.3399 109.015 27.5383 107.389 28.4074C105.814 29.2735 104.063 29.7561 102.272 29.8169H95.7516C95.4636 29.8169 95.3209 29.7041 95.3209 29.4769C95.325 29.4171 95.3341 29.3577 95.3481 29.2994L99.1927 10.9236C99.2728 10.5795 99.4793 10.4061 99.8108 10.4061ZM110.284 18.4845C110.301 17.6622 110.119 16.8482 109.752 16.1143C109.391 15.424 108.826 14.8646 108.137 14.5134C107.413 14.128 106.512 13.9349 105.435 13.9339H102.339L99.7578 26.2891H102.581C103.699 26.2754 104.798 25.9923 105.787 25.4632C106.863 24.9132 107.816 24.1464 108.589 23.2099C109.346 22.328 109.869 21.2663 110.11 20.1239C110.224 19.5851 110.282 19.0356 110.284 18.4845Z" fill="white"/>
<path d="M116.999 15.0929C118.18 13.5865 119.661 12.3493 121.346 11.4618C122.955 10.5895 124.75 10.1288 126.575 10.1198C128.126 10.1198 129.504 10.4629 130.709 11.1493C131.886 11.8062 132.859 12.7824 133.519 13.9683C134.197 15.2024 134.542 16.5951 134.521 18.0069C134.52 18.7118 134.448 19.4148 134.305 20.1046C133.911 21.9404 133.099 23.6573 131.933 25.1177C130.76 26.6233 129.284 27.8584 127.603 28.7405C125.996 29.6101 124.203 30.0685 122.381 30.0757C120.841 30.0757 119.463 29.7353 118.247 29.0544C117.06 28.3999 116.075 27.4239 115.404 26.2354C114.716 25.0068 114.365 23.6145 114.386 22.2023C114.391 21.497 114.468 20.794 114.616 20.1046C115.01 18.2675 115.826 16.5504 116.999 15.0929ZM118.202 21.7935C118.187 22.628 118.374 23.4536 118.746 24.1982C119.107 24.8964 119.672 25.4649 120.364 25.8266C121.088 26.2166 121.978 26.4116 123.033 26.4116C124.073 26.4116 125.13 26.128 126.205 25.5609C127.28 24.9932 128.23 24.2113 128.998 23.2622C129.758 22.3533 130.288 21.2712 130.544 20.1087C130.673 19.537 130.741 18.9527 130.745 18.3661C130.764 17.5352 130.584 16.712 130.221 15.967C129.865 15.2755 129.306 14.7135 128.621 14.3593C127.905 13.9738 127.013 13.7811 125.946 13.7811C124.822 13.796 123.72 14.0879 122.733 14.6318C121.657 15.1994 120.706 15.9824 119.937 16.9332C119.175 17.8455 118.644 18.9321 118.39 20.0991C118.27 20.6559 118.207 21.2237 118.202 21.7935Z" fill="white"/>
<path d="M138.179 10.4061H145.56C146.465 10.3894 147.357 10.6226 148.141 11.0805C148.874 11.5133 149.474 12.1425 149.876 12.8988C150.285 13.6687 150.495 14.531 150.487 15.4054C150.488 15.8272 150.443 16.2478 150.351 16.6593C150.107 17.7552 149.628 18.7831 148.947 19.6697C148.253 20.5948 147.373 21.3604 146.366 21.9161C145.388 22.4705 144.286 22.7615 143.166 22.7612H138.837L137.481 29.2856C137.399 29.6408 137.194 29.8169 136.863 29.8169H134.12C133.848 29.8169 133.703 29.7 133.703 29.4632C133.708 29.4034 133.717 29.3441 133.73 29.2856L137.575 10.9236C137.674 10.5795 137.875 10.4061 138.179 10.4061ZM139.524 19.5196H142.885C143.493 19.513 144.093 19.3833 144.651 19.1384C145.23 18.8989 145.755 18.5447 146.197 18.0964C146.601 17.7038 146.882 17.1991 147.004 16.6456C147.047 16.4163 147.069 16.1837 147.072 15.9505C147.077 15.5088 146.978 15.0723 146.783 14.6772C146.586 14.2874 146.28 13.9651 145.904 13.7509C145.461 13.506 144.962 13.3858 144.458 13.4026H140.694L139.524 19.5196Z" fill="white"/>
<path d="M148.8 26.2904C148.805 26.1901 148.834 26.0924 148.883 26.0049C148.932 25.9175 149 25.8428 149.083 25.7867L150.857 24.3015C150.963 24.2125 151.095 24.16 151.233 24.1514C151.369 24.1514 151.529 24.2478 151.718 24.4377C152.856 25.828 154.231 26.5226 155.845 26.5217C156.476 26.5285 157.102 26.4082 157.686 26.1679C158.212 25.9583 158.688 25.6352 159.078 25.2209C159.414 24.8756 159.653 24.4455 159.77 23.9752C159.796 23.8545 159.81 23.7313 159.811 23.6077C159.811 22.9892 159.513 22.5033 158.917 22.15C158.216 21.7516 157.468 21.4449 156.692 21.2375C155.73 20.9774 154.811 20.5782 153.962 20.0523C153.232 19.6087 152.602 19.014 152.113 18.307C151.682 17.6767 151.45 16.9281 151.449 16.1611C151.447 15.8725 151.478 15.5846 151.543 15.3035C151.75 14.2656 152.226 13.302 152.92 12.5107C153.653 11.6943 154.568 11.0683 155.59 10.6855C156.767 10.2421 158.016 10.0251 159.273 10.0454C160.365 10.0528 161.438 10.3337 162.397 10.8631C163.368 11.3638 164.21 12.0868 164.857 12.9746C164.948 13.0807 165.001 13.2153 165.006 13.3558C165.006 13.5651 164.885 13.7688 164.643 13.9821L163.244 15.1673C163.134 15.2624 162.998 15.3198 162.854 15.3311C162.757 15.3308 162.663 15.3021 162.582 15.2485C162.477 15.178 162.38 15.0958 162.293 15.0035C161.211 13.9105 160.095 13.3636 158.945 13.3627C158.157 13.3517 157.375 13.5117 156.652 13.8321C155.967 14.1459 155.544 14.7066 155.382 15.5141C155.357 15.635 155.344 15.7581 155.343 15.8816C155.34 16.0621 155.376 16.2411 155.446 16.407C155.516 16.5729 155.62 16.7221 155.75 16.8452C156.066 17.1429 156.434 17.3765 156.837 17.5334C157.422 17.7683 158.019 17.9727 158.625 18.1459C159.579 18.4507 160.509 18.8266 161.408 19.2705C162.101 19.6132 162.71 20.1089 163.189 20.7213C163.642 21.3113 163.868 22.0376 163.868 22.9002C163.866 23.3036 163.82 23.7056 163.733 24.0991C163.491 25.2686 162.932 26.3465 162.119 27.2113C161.275 28.1245 160.247 28.8432 159.104 29.3187C157.95 29.8132 156.709 30.0679 155.455 30.0675C154.582 30.0682 153.715 29.9164 152.893 29.6187C152.094 29.3347 151.34 28.9331 150.656 28.4267C150.027 27.9663 149.469 27.4127 149.002 26.7846C148.887 26.6446 148.816 26.4722 148.8 26.2904Z" fill="white"/>
</g>
<defs>
<clipPath id="clip0">
<rect width="165" height="40" fill="white"/>
</clipPath>
</defs>
</svg>
