<svg width="36" height="36" viewBox="0 0 36 36" fill="none" xmlns="http://www.w3.org/2000/svg">
<path d="M15.6 3.6C8.98677 3.6 3.59998 8.98679 3.59998 15.6C3.59998 22.2132 8.98677 27.6 15.6 27.6C18.4758 27.6 21.1168 26.5788 23.1867 24.8836L30.3515 32.0484C30.4621 32.1636 30.5946 32.2556 30.7411 32.3189C30.8877 32.3822 31.0454 32.4157 31.205 32.4173C31.3647 32.419 31.5231 32.3887 31.6709 32.3284C31.8187 32.268 31.953 32.1788 32.0659 32.0659C32.1788 31.953 32.268 31.8187 32.3283 31.6709C32.3887 31.5231 32.4189 31.3647 32.4173 31.2051C32.4157 31.0454 32.3822 30.8877 32.3189 30.7411C32.2555 30.5946 32.1636 30.4621 32.0484 30.3516L24.8836 23.1867C26.5788 21.1169 27.6 18.4758 27.6 15.6C27.6 8.98679 22.2132 3.6 15.6 3.6ZM15.6 6C20.9161 6 25.2 10.2839 25.2 15.6C25.2 20.9161 20.9161 25.2 15.6 25.2C10.2838 25.2 5.99998 20.9161 5.99998 15.6C5.99998 10.2839 10.2838 6 15.6 6Z" fill="black" stroke="black"/>
</svg>
