<svg width="40" height="40" viewBox="0 0 40 40" fill="none" xmlns="http://www.w3.org/2000/svg">
<path d="M33.8049 0H5.26477C2.35717 0 0 2.41318 0 5.39008V34.6097C0 37.5866 2.35708 39.9998 5.26477 39.9998H19.3406L19.3646 25.706H15.7374C15.2661 25.706 14.8835 25.3158 14.8817 24.8332L14.8643 20.2257C14.8624 19.7405 15.2462 19.3462 15.7201 19.3462H19.3407V14.8942C19.3407 9.72768 22.4227 6.91449 26.9244 6.91449H30.6184C31.091 6.91449 31.4743 7.30677 31.4743 7.79074V11.6758C31.4743 12.1596 31.0913 12.5517 30.6189 12.552L28.3519 12.5531C25.9038 12.5531 25.4297 13.7441 25.4297 15.492V19.3463H30.8092C31.3218 19.3463 31.7194 19.8045 31.659 20.3256L31.1256 24.9331C31.0746 25.374 30.7094 25.7062 30.2758 25.7062H25.4537L25.4297 40H33.8051C36.7127 40 39.0698 37.5868 39.0698 34.61V5.39008C39.0697 2.41318 36.7126 0 33.8049 0Z" fill="#475993"/>
</svg>
