<svg width="39" height="40" viewBox="0 0 39 40" fill="none" xmlns="http://www.w3.org/2000/svg">
<path d="M35.4721 0H3.52787C1.5795 0 0 1.62 0 3.61832V36.3816C0 38.38 1.5795 40 3.52787 40H35.472C37.4205 40 39 38.38 39 36.3816V3.61832C39 1.62 37.4205 0 35.4721 0ZM12.0683 34.5386C12.0683 35.1202 11.6086 35.5916 11.0416 35.5916H6.67135C6.10432 35.5916 5.64469 35.1202 5.64469 34.5386V15.749C5.64469 15.1674 6.10432 14.696 6.67135 14.696H11.0416C11.6086 14.696 12.0683 15.1674 12.0683 15.749V34.5386ZM8.85647 12.9248C6.56354 12.9248 4.70471 11.0183 4.70471 8.6666C4.70471 6.31487 6.56354 4.40838 8.85647 4.40838C11.1494 4.40838 13.0082 6.31487 13.0082 8.6666C13.0082 11.0183 11.1495 12.9248 8.85647 12.9248ZM34.907 34.6235C34.907 35.1581 34.4844 35.5916 33.9631 35.5916H29.2735C28.7522 35.5916 28.3295 35.1581 28.3295 34.6235V25.8101C28.3295 24.4953 28.7055 20.0487 24.9795 20.0487C22.0893 20.0487 21.5031 23.0923 21.3854 24.4581V34.6235C21.3854 35.1581 20.9628 35.5916 20.4414 35.5916H15.9058C15.3845 35.5916 14.9618 35.1581 14.9618 34.6235V15.6642C14.9618 15.1295 15.3845 14.696 15.9058 14.696H20.4414C20.9627 14.696 21.3854 15.1295 21.3854 15.6642V17.3035C22.4571 15.6539 24.0497 14.3807 27.4408 14.3807C34.95 14.3807 34.907 21.5761 34.907 25.5296V34.6235Z" fill="#0077B7"/>
</svg>
