<svg width="40" height="34" viewBox="0 0 40 34" fill="none" xmlns="http://www.w3.org/2000/svg">
<path d="M39.3638 3.8777C38.4751 4.27251 37.5525 4.58399 36.6058 4.80949C37.649 3.81644 38.4333 2.57435 38.8757 1.18796C39.002 0.792169 38.5729 0.449918 38.2162 0.661834C36.8992 1.44443 35.4806 2.03152 33.9997 2.40699C33.9138 2.42878 33.8251 2.43982 33.7362 2.43982C33.4664 2.43982 33.2042 2.33948 32.9979 2.15736C31.4223 0.76618 29.3959 0 27.292 0C26.3816 0 25.4624 0.142157 24.56 0.422562C21.7637 1.29143 19.6062 3.60218 18.9293 6.45313C18.6753 7.52248 18.6066 8.59281 18.7248 9.63431C18.7383 9.754 18.6819 9.83753 18.6471 9.87671C18.5859 9.94539 18.4992 9.98477 18.4092 9.98477C18.3992 9.98477 18.3888 9.98428 18.3786 9.9833C12.2578 9.4136 6.7383 6.45938 2.83685 1.66494C2.6379 1.42039 2.25638 1.45039 2.09781 1.72288C1.3338 3.036 0.930053 4.53787 0.930053 6.06613C0.930053 8.40825 1.86931 10.6154 3.50079 12.2245C2.81471 12.0615 2.15067 11.8049 1.53383 11.4616C1.2354 11.2955 0.868223 11.509 0.86403 11.851C0.821314 15.3303 2.85469 18.4263 5.90076 19.8204C5.83942 19.8219 5.77808 19.8226 5.71664 19.8226C5.23379 19.8226 4.7449 19.7759 4.26372 19.6838C3.92765 19.6195 3.64532 19.9389 3.74967 20.2653C4.73837 23.3577 7.3961 25.637 10.5766 26.1546C7.93697 27.9297 4.8631 28.8661 1.66383 28.8661L0.666446 28.8655C0.359147 28.8655 0.0992454 29.0662 0.0209335 29.3644C-0.056208 29.6581 0.0858846 29.9679 0.347932 30.1206C3.95301 32.2225 8.06511 33.3333 12.2415 33.3333C15.8972 33.3333 19.3168 32.6065 22.4054 31.1732C25.2368 29.8592 27.7389 27.9809 29.8421 25.5904C31.8013 23.3636 33.3334 20.793 34.3957 17.95C35.4082 15.2401 35.9435 12.3485 35.9435 9.5878V9.4563C35.9434 9.01302 36.1435 8.59593 36.4926 8.31201C37.8175 7.23435 38.9712 5.96579 39.9216 4.54159C40.1725 4.16553 39.7767 3.69422 39.3638 3.8777Z" fill="#76A9EA"/>
</svg>
